<svg width="29" height="28" viewBox="0 0 29 28" fill="none" xmlns="http://www.w3.org/2000/svg">
<path d="M4.85388 20.1994C5.04201 20.3879 5.18617 20.6154 5.27608 20.8657C5.366 21.1161 5.39945 21.3831 5.37406 21.6479C5.24668 22.8731 5.00518 24.0839 4.65269 25.2645C7.18112 24.6804 8.72538 24.0041 9.42681 23.6497C9.82466 23.4486 10.2828 23.401 10.7137 23.5158C11.9488 23.8443 13.2218 24.0097 14.5 24.0077C21.7428 24.0077 27.1875 18.9318 27.1875 13.158C27.1875 7.38595 21.7428 2.30828 14.5 2.30828C7.25725 2.30828 1.8125 7.38595 1.8125 13.158C1.8125 15.8125 2.93081 18.2754 4.85388 20.1994ZM3.96031 27.2608C3.53087 27.3457 3.10004 27.4235 2.668 27.4941C2.3055 27.5519 2.03 27.1758 2.17319 26.8395C2.33412 26.4608 2.48163 26.0766 2.61544 25.6876L2.62087 25.6695C3.07037 24.3675 3.4365 22.8703 3.57063 21.4761C1.34669 19.2519 0 16.3406 0 13.158C0 6.16716 6.49237 0.5 14.5 0.5C22.5076 0.5 29 6.16716 29 13.158C29 20.1488 22.5076 25.816 14.5 25.816C13.0639 25.8179 11.6337 25.6319 10.2461 25.2626C9.30356 25.7382 7.27537 26.6044 3.96031 27.2608Z" fill="#B4B4B4"/>
</svg>
